<?xml version="1.0" encoding="UTF-8"?><svg id="b" xmlns="http://www.w3.org/2000/svg" viewBox="0 0 622.21 362.34"><g id="c"><g id="d"><path d="M145.13,0l-29.31,16.18C42.89,64.99,17.76,164.52,57.75,242.87c42.59,83.44,145.17,119.25,231.06,80.3,7.33-3.33,14-7.86,21.32-11.17-15.82,17.53-38.3,30.93-60.48,39.01C115.87,399.75-19.9,283.91,2.42,144.78,13.86,73.51,72.64,9.83,145.13,0Z" fill="#fff"/><path d="M164.13,146.49v39.5l-36-45.5-13-.49c.53,1.47,2.09,2.18,2.77,3.72,2.1,4.74,1.96,46.33,1.26,53.81-.19,2.06-.4,4.69-1.57,6.43-1.21,1.8-3.28,1.34-3.47,3.03h15v-.99c-1.83.85-4-4.75-4-5.51v-48.5l42.01,55.49,2.99,1.51v-60.5c0-2.54,2.25-6.58,4-8.5h-14c.89,1.62,4,4.72,4,6.5Z" fill="#fff"/><path d="M301.64,144.01c11.14-.96,14.07,3.03,21.48,9.98l-.45-11.04c-30.07-13.81-62.89,9.41-53.04,43.04,5.25,17.94,26.12,26.81,43.52,21.52,7.99-2.43,11.5-6.13,11.98-14.51l-10.32,8.17c-38.81,16.53-51.5-53.86-13.17-57.16Z" fill="#fff"/><path d="M591.35,150.7c1.45-6.38,10.63-7.6,16.06-6.48,5.27,1.09,8.17,6.41,11.72,9.77l.02-13c-9.43-.37-17.33-4.23-26.69-.18-10.31,4.46-12.54,17.76-6.15,26.52,6.76,9.27,28.51,12.07,27.9,25.15-.53,11.26-16.39,13.78-23.99,7.94l-8.06-9.42c-.13,12.07-2.38,13.72,9.8,16.72,13.57,3.34,30.33-1.97,30.27-18.23-.08-21.34-35.56-18.05-30.86-38.78Z" fill="#fff"/><path d="M336.14,150.99c5.78-4.7,15.13-8.93,21.85-4.36l.16,53.88-3.02,6.48h16c-1.77-2.48-2.64-4.39-3-7.5-1.12-9.76.16-22.81.03-33.06-.09-6.96-2.33-13.83-.08-20.8,6.25-1.86,14.07-.33,19.34,3.36.97.68.19,2.34,1.7,1.99v-10.99s-52.99,0-52.99,0v11Z" fill="#fff"/><path d="M561.66,148.02c-.69,2.5-13.65,24.53-15.04,24.97-1.81.59-1.34-.66-1.73-1.29-3.15-5.13-14.6-23.44-13.77-28.16.28-1.63,1.54-2.21,2.01-3.55h-20l6.98,6.52c6.7,11.63,17.3,25.54,18.74,39.01.68,6.42.31,16.33-3.71,21.47h16c-1.13-1.99-2.54-3.04-2.94-5.56-.62-3.91-.55-18.82.41-22.48.83-3.16,15.98-26.96,18.9-31.1,2.03-2.88,4.58-5.07,6.63-7.87h-14c2.28,2.82,2.49,4.51,1.53,8.03Z" fill="#fff"/><path d="M484.13,201.99v-54.5c0-1.03,1.94-7.4,3.99-6.51v-.99s-17.99,0-17.99,0c.26,1.71,2.12,1.13,3.26,3.24,1.01,1.87,1.59,5.98,1.78,8.22.62,7.29.95,47.61-.8,52.28-.45,1.21-1.98,1.99-2.24,3.26h40l1.99-15c-7.14,9.85-18.63,10.64-29.99,10Z" fill="#fff"/><path d="M216.91,139.27c-44.81,5.37-36.84,75.13,8.65,69.64,43.7-5.27,37.39-75.15-8.65-69.64ZM223.61,203.99c-31.15,2.12-36.29-56.11-6.71-59.75,33.64-4.14,37.76,57.63,6.71,59.75Z" fill="#fff"/><path d="M455,208.98c-7.36-11.23-11.25-25.9-15.36-38.78-3.08-9.63-5.72-19.46-8.33-29.24l-7.63-.08-27.3,55.63-7.24,8.35,15.97,1c-4.66-6.86,1.09-14.49,3.22-21.25l27.99,1.26c.4,7.81,7.74,14.77,1.73,22.05l16.97,1.06ZM411.77,179.23l12.24-27.3,9.72,28.67-21.96-1.37Z" fill="#fff"/></g></g></svg>